<svg width="1200" height="630" viewBox="0 0 1200 630" fill="none" xmlns="http://www.w3.org/2000/svg">
  <!-- Background -->
  <rect width="1200" height="630" fill="#000000"/>
  
  <!-- Gradient overlay -->
  <defs>
    <radialGradient id="bgGrad" cx="25%" cy="25%" r="70%">
      <stop offset="0%" stop-color="#1a1a1a"/>
      <stop offset="100%" stop-color="#000000"/>
    </radialGradient>
    <linearGradient id="redGrad" x1="0%" y1="100%" x2="0%" y2="0%">
      <stop offset="0%" stop-color="rgba(225, 6, 0, 0.3)"/>
      <stop offset="100%" stop-color="transparent"/>
    </linearGradient>
  </defs>
  
  <rect width="1200" height="630" fill="url(#bgGrad)"/>
  <rect y="378" width="1200" height="252" fill="url(#redGrad)"/>
  
  <!-- TK Logo Icon -->
  <g transform="translate(500, 100) scale(0.5)">
    <rect x="0" y="0" width="200" height="200" rx="40" fill="#e10600"/>
    <g transform="translate(20, 20) scale(0.77)">
      <path fill-rule="evenodd" clip-rule="evenodd" d="M41.76 9.52013C62.73 -1.38987 86.19 -2.60987 107 4.26013L103.54 18.3901C86.04 12.3001 66.17 13.1601 48.44 22.3801C30.71 31.6101 18.6 47.3901 13.55 65.2101L0 59.9401C6.32 38.9501 20.78 20.4401 41.76 9.52013Z" fill="white"/>
      <path fill-rule="evenodd" clip-rule="evenodd" d="M53.66 32.41C69.49 24.17 87.28 23.59 102.79 29.34L100.28 39.57C87.18 34.36 71.97 34.66 58.48 41.68C44.99 48.7 36.02 60.98 32.76 74.7L22.94 70.88C27.13 54.88 37.82 40.65 53.65 32.41H53.66Z" fill="white"/>
      <path fill-rule="evenodd" clip-rule="evenodd" d="M63.45 51.21C75 45.2 88.08 45.14 99.17 49.93L97.44 57C88.03 52.54 76.71 52.39 66.76 57.56C56.81 62.74 50.44 72.1 48.69 82.36L41.9 79.72C44.35 67.89 51.9 57.22 63.45 51.2V51.21Z" fill="white"/>
      <path fill-rule="evenodd" clip-rule="evenodd" d="M72.02 67.68C79.56 63.76 87.88 62.9 95.56 64.65L87.52 97.47L56.02 85.22C59 77.92 64.48 71.6 72.02 67.68Z" fill="white"/>
      <path fill-rule="evenodd" clip-rule="evenodd" d="M34.15 91.16L17.09 84.52L16.71 88.44C15.39 102.07 18.07 115.76 24.39 127.9C33.1 144.63 47.96 157.1 65.94 162.78C83.89 168.44 103.28 166.75 119.98 158.07C136.71 149.36 149.18 134.5 154.86 116.52C160.52 98.57 158.83 79.18 150.14 62.48C143.81 50.31 134.18 40.3 122.23 33.53L118.8 31.59L114.44 49.37L116.22 50.52C123.97 55.54 130.21 62.43 134.47 70.62C141 83.16 142.27 97.71 138.01 111.2C133.75 124.71 124.39 135.86 111.82 142.4C99.28 148.93 84.73 150.2 71.24 145.94C57.74 141.68 46.58 132.32 40.04 119.75C35.78 111.56 33.71 102.49 34.05 93.27L34.13 91.15L34.15 91.16Z" fill="white"/>
      <path fill-rule="evenodd" clip-rule="evenodd" d="M58.8 94.72L49.66 91.17L49.46 93.27C48.76 100.57 50.19 107.91 53.58 114.42C58.24 123.38 66.2 130.06 75.84 133.11C85.46 136.15 95.84 135.24 104.79 130.58C113.75 125.91 120.44 117.95 123.48 108.31C126.52 98.69 125.61 88.31 120.95 79.36C117.56 72.84 112.39 67.47 106 63.85L104.16 62.81L101.82 72.33L102.77 72.95C106.92 75.63 110.27 79.33 112.55 83.72C116.05 90.44 116.73 98.24 114.45 105.46C112.17 112.7 107.15 118.67 100.42 122.18C93.7 125.68 85.9 126.36 78.67 124.08C71.43 121.79 65.46 116.78 61.95 110.04C59.67 105.65 58.56 100.79 58.74 95.85L58.78 94.71L58.8 94.72Z" fill="white"/>
    </g>
  </g>
  
  <!-- TK Rastreadores Text -->
  <text x="600" y="360" text-anchor="middle" font-family="system-ui, -apple-system, sans-serif" font-size="72" font-weight="bold" fill="white" letter-spacing="-3">
    TK Rastreadores
  </text>
  
  <!-- Tagline -->
  <text x="600" y="420" text-anchor="middle" font-family="system-ui, -apple-system, sans-serif" font-size="32" fill="rgba(255,255,255,0.7)">
    Gestão e Monitoramento de Frotas Inteligente
  </text>
  
  <!-- Stats -->
  <g transform="translate(200, 480)">
    <!-- 14+ Anos -->
    <text x="0" y="0" text-anchor="middle" font-family="system-ui, sans-serif" font-size="48" font-weight="bold" fill="#e10600">14+</text>
    <text x="0" y="35" text-anchor="middle" font-family="system-ui, sans-serif" font-size="18" fill="rgba(255,255,255,0.6)">Anos</text>
  </g>
  
  <g transform="translate(600, 480)">
    <!-- 3000+ Clientes -->
    <text x="0" y="0" text-anchor="middle" font-family="system-ui, sans-serif" font-size="48" font-weight="bold" fill="#e10600">3000+</text>
    <text x="0" y="35" text-anchor="middle" font-family="system-ui, sans-serif" font-size="18" fill="rgba(255,255,255,0.6)">Clientes</text>
  </g>
  
  <g transform="translate(1000, 480)">
    <!-- 20000+ Rastreadores -->
    <text x="0" y="0" text-anchor="middle" font-family="system-ui, sans-serif" font-size="48" font-weight="bold" fill="#e10600">20000+</text>
    <text x="0" y="35" text-anchor="middle" font-family="system-ui, sans-serif" font-size="18" fill="rgba(255,255,255,0.6)">Rastreadores</text>
  </g>
  
  <!-- Website URL -->
  <text x="600" y="600" text-anchor="middle" font-family="system-ui, sans-serif" font-size="20" fill="rgba(255,255,255,0.5)">
    tkrastreadores.com.br
  </text>
</svg>
