<svg width="159" height="167" viewBox="0 0 159 167" fill="none" xmlns="http://www.w3.org/2000/svg">
<path fill-rule="evenodd" clip-rule="evenodd" d="M41.76 9.52013C62.73 -1.38987 86.19 -2.60987 107 4.26013L103.54 18.3901C86.04 12.3001 66.17 13.1601 48.44 22.3801C30.71 31.6101 18.6 47.3901 13.55 65.2101L0 59.9401C6.32 38.9501 20.78 20.4401 41.76 9.52013Z" fill="#FF0000"/>
<path fill-rule="evenodd" clip-rule="evenodd" d="M53.6599 32.41C69.4899 24.17 87.2799 23.59 102.79 29.34L100.28 39.57C87.1799 34.36 71.9699 34.66 58.4799 41.68C44.9899 48.7 36.0199 60.98 32.7599 74.7L22.9399 70.88C27.1299 54.88 37.8199 40.65 53.6499 32.41H53.6599Z" fill="#FF0000"/>
<path fill-rule="evenodd" clip-rule="evenodd" d="M63.45 51.21C75 45.2 88.08 45.14 99.17 49.93L97.44 57C88.03 52.54 76.71 52.39 66.76 57.56C56.81 62.74 50.44 72.1 48.69 82.36L41.9 79.72C44.35 67.89 51.9 57.22 63.45 51.2V51.21Z" fill="#FF0000"/>
<path fill-rule="evenodd" clip-rule="evenodd" d="M72.02 67.68C79.56 63.76 87.88 62.9 95.56 64.65L87.52 97.47L56.02 85.22C59 77.92 64.48 71.6 72.02 67.68Z" fill="#FF0000"/>
<path fill-rule="evenodd" clip-rule="evenodd" d="M34.1499 91.16L17.0899 84.52L16.7099 88.44C15.3899 102.07 18.0699 115.76 24.3899 127.9C33.0999 144.63 47.9599 157.1 65.9399 162.78C83.8899 168.44 103.28 166.75 119.98 158.07C136.71 149.36 149.18 134.5 154.86 116.52C160.52 98.57 158.83 79.18 150.14 62.48C143.81 50.31 134.18 40.3 122.23 33.53L118.8 31.59L114.44 49.37L116.22 50.52C123.97 55.54 130.21 62.43 134.47 70.62C141 83.16 142.27 97.71 138.01 111.2C133.75 124.71 124.39 135.86 111.82 142.4C99.2799 148.93 84.7299 150.2 71.2399 145.94C57.7399 141.68 46.5799 132.32 40.0399 119.75C35.7799 111.56 33.7099 102.49 34.0499 93.27L34.1299 91.15L34.1499 91.16Z" fill="#FF0000"/>
<path fill-rule="evenodd" clip-rule="evenodd" d="M58.7999 94.72L49.6599 91.17L49.4599 93.27C48.7599 100.57 50.1899 107.91 53.5799 114.42C58.2399 123.38 66.1999 130.06 75.8399 133.11C85.4599 136.15 95.8399 135.24 104.79 130.58C113.75 125.91 120.44 117.95 123.48 108.31C126.52 98.69 125.61 88.31 120.95 79.36C117.56 72.84 112.39 67.47 106 63.85L104.16 62.81L101.82 72.33L102.77 72.95C106.92 75.63 110.27 79.33 112.55 83.72C116.05 90.44 116.73 98.24 114.45 105.46C112.17 112.7 107.15 118.67 100.42 122.18C93.6999 125.68 85.8999 126.36 78.6699 124.08C71.4299 121.79 65.4599 116.78 61.9499 110.04C59.6699 105.65 58.5599 100.79 58.7399 95.85L58.7799 94.71L58.7999 94.72Z" fill="#FF0000"/>
</svg>
