<svg width="416" height="208" viewBox="0 0 416 208" fill="none" xmlns="http://www.w3.org/2000/svg">
<g clip-path="url(#clip0_2_76)">
<path fill-rule="evenodd" clip-rule="evenodd" d="M41.76 9.52013C62.73 -1.38987 86.19 -2.60987 107 4.26013L103.54 18.3901C86.04 12.3001 66.17 13.1601 48.44 22.3801C30.71 31.6101 18.6 47.3901 13.55 65.2101L0 59.9401C6.32 38.9501 20.78 20.4401 41.76 9.52013Z" fill="#FF0000"/>
<path fill-rule="evenodd" clip-rule="evenodd" d="M53.66 32.41C69.49 24.17 87.28 23.59 102.79 29.34L100.28 39.57C87.18 34.36 71.97 34.66 58.48 41.68C44.99 48.7 36.02 60.98 32.76 74.7L22.94 70.88C27.13 54.88 37.82 40.65 53.65 32.41H53.66Z" fill="#FF0000"/>
<path fill-rule="evenodd" clip-rule="evenodd" d="M63.45 51.21C75 45.2 88.08 45.14 99.17 49.93L97.44 57C88.03 52.54 76.71 52.39 66.76 57.56C56.81 62.74 50.44 72.1 48.69 82.36L41.9 79.72C44.35 67.89 51.9 57.22 63.45 51.2V51.21Z" fill="#FF0000"/>
<path fill-rule="evenodd" clip-rule="evenodd" d="M72.02 67.68C79.56 63.76 87.88 62.9 95.56 64.65L87.52 97.47L56.02 85.22C59 77.92 64.48 71.6 72.02 67.68Z" fill="#FF0000"/>
<path fill-rule="evenodd" clip-rule="evenodd" d="M34.15 91.16L17.09 84.52L16.71 88.44C15.39 102.07 18.07 115.76 24.39 127.9C33.1 144.63 47.96 157.1 65.94 162.78C83.89 168.44 103.28 166.75 119.98 158.07C136.71 149.36 149.18 134.5 154.86 116.52C160.52 98.57 158.83 79.18 150.14 62.48C143.81 50.31 134.18 40.3 122.23 33.53L118.8 31.59L114.44 49.37L116.22 50.52C123.97 55.54 130.21 62.43 134.47 70.62C141 83.16 142.27 97.71 138.01 111.2C133.75 124.71 124.39 135.86 111.82 142.4C99.28 148.93 84.73 150.2 71.24 145.94C57.74 141.68 46.58 132.32 40.04 119.75C35.78 111.56 33.71 102.49 34.05 93.27L34.13 91.15L34.15 91.16Z" fill="white"/>
<path fill-rule="evenodd" clip-rule="evenodd" d="M58.8 94.72L49.66 91.17L49.46 93.27C48.76 100.57 50.19 107.91 53.58 114.42C58.24 123.38 66.2 130.06 75.84 133.11C85.46 136.15 95.84 135.24 104.79 130.58C113.75 125.91 120.44 117.95 123.48 108.31C126.52 98.69 125.61 88.31 120.95 79.36C117.56 72.84 112.39 67.47 106 63.85L104.16 62.81L101.82 72.33L102.77 72.95C106.92 75.63 110.27 79.33 112.55 83.72C116.05 90.44 116.73 98.24 114.45 105.46C112.17 112.7 107.15 118.67 100.42 122.18C93.7 125.68 85.9 126.36 78.67 124.08C71.43 121.79 65.46 116.78 61.95 110.04C59.67 105.65 58.56 100.79 58.74 95.85L58.78 94.71L58.8 94.72Z" fill="white"/>
<path fill-rule="evenodd" clip-rule="evenodd" d="M180.64 37V58.51H189.64V125.81C189.64 134.6 192.76 142.11 199.03 148.43C205.26 154.7 212.81 157.86 221.65 157.86H242.65C251.14 157.86 258.56 154.79 264.88 148.65C267.91 145.74 270.21 142.69 271.79 139.47L252.89 128.85C251.99 131.28 250.67 133.12 248.92 134.4C247.17 135.72 245.16 136.36 242.9 136.36H221.65C218.75 136.36 216.31 135.38 214.35 133.42C212.39 131.46 211.4 129.02 211.4 126.08V58.51H252.15V37H211.4V8.54001H189.63V37H180.63H180.64Z" fill="white"/>
<path d="M180.64 37V58.51H189.64V125.81C189.64 134.6 192.76 142.11 199.03 148.43C205.26 154.7 212.81 157.86 221.65 157.86H242.65C251.14 157.86 258.56 154.79 264.88 148.65C267.91 145.74 270.21 142.69 271.79 139.47L252.89 128.85C251.99 131.28 250.67 133.12 248.92 134.4C247.17 135.72 245.16 136.36 242.9 136.36H221.65C218.75 136.36 216.31 135.38 214.35 133.42C212.39 131.46 211.4 129.02 211.4 126.08V58.51H252.15V37H211.4V8.54001H189.63V37H180.63H180.64Z" stroke="white" stroke-width="0.57"/>
<path fill-rule="evenodd" clip-rule="evenodd" d="M287.83 8.54001V157.85H309.34V116.12L319.83 107.24L378.83 157.85H412.47L336.48 93.12L378.89 56.29L364.86 40.12L309.34 88V8.54001H287.83Z" fill="white"/>
<path fill-rule="evenodd" clip-rule="evenodd" d="M409.57 197.65C409.57 196.85 409.37 196.19 408.95 195.7C408.53 195.2 407.97 194.79 407.25 194.48C406.53 194.16 405.73 193.9 404.84 193.7C403.95 193.5 403.01 193.31 402.04 193.12C400.74 192.85 399.49 192.53 398.31 192.16C397.13 191.78 396.09 191.27 395.19 190.61C394.29 189.95 393.57 189.12 393.05 188.11C392.51 187.09 392.25 185.83 392.25 184.31C392.25 182.63 392.56 181.18 393.18 179.93C393.8 178.69 394.64 177.66 395.7 176.84C396.77 176.03 398.01 175.42 399.45 175.02C400.88 174.61 402.49 174.41 404.27 174.41C406.05 174.41 407.85 174.57 409.66 174.91C411.46 175.24 413.01 175.67 414.32 176.19V181.17C412.59 180.52 410.92 180.05 409.32 179.76C407.73 179.47 406.23 179.32 404.82 179.32C402.8 179.32 401.25 179.67 400.15 180.36C399.06 181.06 398.51 182.1 398.51 183.5C398.51 184.31 398.69 184.97 399.05 185.5C399.41 186.02 399.89 186.45 400.5 186.79C401.11 187.13 401.82 187.4 402.63 187.61C403.42 187.81 404.27 188 405.17 188.18C406.59 188.47 407.94 188.8 409.22 189.17C410.51 189.54 411.66 190.05 412.66 190.72C413.65 191.4 414.45 192.25 415.03 193.32C415.61 194.39 415.91 195.76 415.91 197.42C415.91 199.08 415.57 200.61 414.91 201.86C414.24 203.11 413.29 204.15 412.06 204.96C410.84 205.77 409.35 206.38 407.6 206.78C405.84 207.17 403.92 207.37 401.84 207.37C400.02 207.37 398.22 207.2 396.46 206.86C394.7 206.52 393.24 206.04 392.07 205.43V200.52C393.73 201.2 395.34 201.69 396.91 202C398.48 202.31 400.1 202.46 401.77 202.46C402.74 202.46 403.7 202.39 404.63 202.23C405.56 202.09 406.4 201.83 407.15 201.46C407.89 201.1 408.49 200.6 408.95 199.97C409.4 199.35 409.62 198.58 409.62 197.65H409.57ZM368.76 201.92H385.24V206.78H362.6V175.04H384.33V179.9H368.75V188.11H382.13V192.97H368.75V201.91L368.76 201.92ZM338.19 189.62C339.59 189.62 340.78 189.57 341.75 189.44C342.73 189.32 343.54 189.14 344.2 188.9C345.43 188.46 346.29 187.86 346.77 187.08C347.24 186.32 347.48 185.44 347.48 184.44C347.48 183.59 347.29 182.83 346.91 182.17C346.53 181.51 345.9 181 345 180.62C344.42 180.36 343.68 180.18 342.8 180.06C341.92 179.94 340.82 179.88 339.52 179.88H335.15V189.6H338.17L338.19 189.62ZM353.79 184.58C353.79 186.79 353.14 188.66 351.85 190.21C350.56 191.75 348.56 192.89 345.85 193.64V193.73L355.89 206.79H348.5L339.38 194.49H335.17V206.79H329.01V175.05H339.19C340.88 175.05 342.45 175.14 343.9 175.32C345.35 175.5 346.59 175.78 347.63 176.14C349.59 176.84 351.12 177.91 352.19 179.3C353.26 180.7 353.79 182.46 353.79 184.58ZM321.16 190.89C321.16 193.31 320.8 195.53 320.07 197.55C319.34 199.57 318.28 201.31 316.88 202.76C315.49 204.22 313.77 205.35 311.74 206.16C309.72 206.96 307.41 207.37 304.82 207.37C302.23 207.37 299.92 206.96 297.89 206.16C295.85 205.35 294.14 204.21 292.75 202.76C291.36 201.31 290.3 199.57 289.57 197.55C288.84 195.53 288.48 193.31 288.48 190.89C288.48 188.47 288.85 186.25 289.57 184.23C290.3 182.21 291.36 180.47 292.75 179.02C294.14 177.56 295.86 176.43 297.89 175.62C299.91 174.82 302.22 174.41 304.82 174.41C307.42 174.41 309.72 174.82 311.74 175.62C313.78 176.43 315.49 177.57 316.88 179.02C318.27 180.47 319.34 182.21 320.07 184.23C320.8 186.25 321.16 188.47 321.16 190.89ZM314.8 190.89C314.8 188.95 314.55 187.27 314.05 185.82C313.55 184.37 312.86 183.16 311.97 182.2C311.09 181.24 310.04 180.52 308.83 180.04C307.62 179.56 306.28 179.33 304.83 179.33C303.38 179.33 302.04 179.56 300.83 180.04C299.62 180.52 298.56 181.24 297.69 182.2C296.8 183.16 296.11 184.37 295.61 185.82C295.11 187.27 294.86 188.95 294.86 190.89C294.86 192.83 295.11 194.51 295.61 195.96C296.11 197.41 296.8 198.61 297.69 199.57C298.57 200.53 299.62 201.25 300.83 201.73C302.04 202.21 303.38 202.45 304.83 202.45C306.28 202.45 307.62 202.21 308.83 201.73C310.04 201.24 311.1 200.52 311.97 199.57C312.86 198.61 313.55 197.41 314.05 195.96C314.55 194.51 314.8 192.82 314.8 190.89ZM261.94 201.92C265.52 201.92 268.33 201.45 270.35 200.52C272.14 199.68 273.49 198.46 274.4 196.86C275.31 195.27 275.78 193.22 275.78 190.74C275.78 189.44 275.62 188.28 275.33 187.23C275.03 186.18 274.59 185.25 274.03 184.44C273.46 183.62 272.77 182.93 271.97 182.34C271.15 181.75 270.24 181.27 269.22 180.89C268.27 180.54 267.21 180.29 266.05 180.13C264.88 179.98 263.57 179.9 262.12 179.9H259.42V201.92H261.95H261.94ZM253.25 206.78V175.04H262.11C262.9 175.04 263.69 175.06 264.5 175.11C265.31 175.16 266.1 175.22 266.87 175.32C267.64 175.42 268.38 175.53 269.09 175.67C269.81 175.8 270.48 175.96 271.07 176.15C272.86 176.69 274.43 177.41 275.81 178.33C277.18 179.24 278.32 180.33 279.25 181.58C280.18 182.83 280.88 184.23 281.36 185.77C281.83 187.31 282.07 188.98 282.07 190.78C282.07 192.58 281.87 194.09 281.47 195.58C281.07 197.08 280.46 198.44 279.64 199.67C278.82 200.91 277.8 201.99 276.55 202.94C275.3 203.88 273.83 204.65 272.13 205.26C270.71 205.76 269.09 206.14 267.3 206.39C265.5 206.64 263.46 206.77 261.21 206.77H253.24L253.25 206.78ZM230.99 182.67C229.79 185.97 228.73 188.75 227.81 190.97L226.67 193.85H235.41L234.27 190.98C233.35 188.74 232.29 185.96 231.09 182.67H230.99ZM237.39 198.71H224.7L221.45 206.78H214.91L228.21 175.04H233.82L247.12 206.78H240.63L237.38 198.71H237.39ZM193.82 201.92H210.3V206.78H187.66V175.04H209.39V179.9H193.81V188.11H207.19V192.97H193.81V201.91L193.82 201.92ZM163.25 189.62C164.65 189.62 165.84 189.57 166.82 189.44C167.79 189.32 168.61 189.14 169.27 188.9C170.5 188.46 171.36 187.86 171.84 187.08C172.31 186.32 172.55 185.44 172.55 184.44C172.55 183.59 172.36 182.83 171.99 182.17C171.61 181.51 170.98 181 170.08 180.62C169.5 180.36 168.76 180.18 167.88 180.06C167 179.94 165.91 179.88 164.61 179.88H160.24V189.6H163.26L163.25 189.62ZM178.85 184.58C178.85 186.79 178.2 188.66 176.91 190.21C175.62 191.75 173.62 192.89 170.91 193.64V193.73L180.96 206.79H173.57L164.45 194.49H160.24V206.79H154.09V175.05H164.27C165.97 175.05 167.53 175.14 168.98 175.32C170.43 175.5 171.68 175.78 172.71 176.14C174.67 176.84 176.2 177.91 177.26 179.3C178.33 180.7 178.86 182.46 178.86 184.58H178.85ZM137.19 206.78H131.03V179.9H120.21V175.04H147.99V179.9H137.19V206.78ZM108.93 197.65C108.93 196.85 108.72 196.19 108.31 195.7C107.89 195.2 107.32 194.79 106.61 194.48C105.9 194.16 105.09 193.9 104.2 193.7C103.31 193.5 102.37 193.31 101.39 193.12C100.09 192.85 98.84 192.53 97.66 192.16C96.48 191.78 95.44 191.27 94.54 190.61C93.64 189.95 92.93 189.12 92.4 188.11C91.86 187.09 91.59 185.83 91.59 184.31C91.59 182.63 91.9 181.18 92.52 179.93C93.13 178.69 93.98 177.66 95.04 176.84C96.11 176.03 97.35 175.42 98.79 175.02C100.22 174.61 101.82 174.41 103.61 174.41C105.4 174.41 107.19 174.57 109 174.91C110.8 175.24 112.35 175.67 113.66 176.19V181.17C111.93 180.52 110.26 180.05 108.66 179.76C107.07 179.47 105.56 179.32 104.16 179.32C102.15 179.32 100.59 179.67 99.5 180.36C98.4 181.06 97.86 182.1 97.86 183.5C97.86 184.31 98.04 184.97 98.4 185.5C98.76 186.02 99.24 186.45 99.85 186.79C100.47 187.13 101.17 187.4 101.98 187.61C102.78 187.81 103.62 188 104.52 188.18C105.94 188.47 107.29 188.8 108.58 189.17C109.87 189.54 111.01 190.05 112.02 190.72C113.01 191.4 113.81 192.25 114.39 193.32C114.97 194.39 115.26 195.76 115.26 197.42C115.26 199.08 114.93 200.61 114.26 201.86C113.59 203.11 112.64 204.15 111.41 204.96C110.19 205.77 108.7 206.38 106.95 206.78C105.19 207.17 103.27 207.37 101.18 207.37C99.36 207.37 97.57 207.2 95.8 206.86C94.04 206.52 92.58 206.04 91.41 205.43V200.52C93.07 201.2 94.67 201.69 96.25 202C97.81 202.31 99.44 202.46 101.11 202.46C102.07 202.46 103.03 202.39 103.96 202.23C104.89 202.09 105.73 201.83 106.47 201.46C107.22 201.1 107.81 200.6 108.27 199.97C108.72 199.35 108.95 198.58 108.95 197.65H108.93ZM70.19 182.67C69 185.97 67.94 188.75 67.01 190.97L65.87 193.85H74.61L73.47 190.98C72.54 188.74 71.49 185.96 70.29 182.67H70.18H70.19ZM76.59 198.71H63.91L60.66 206.78H54.12L67.42 175.04H73.03L86.33 206.78H79.84L76.59 198.71ZM32.96 189.62C34.36 189.62 35.55 189.57 36.52 189.44C37.5 189.32 38.31 189.14 38.98 188.9C40.21 188.46 41.07 187.86 41.54 187.08C42.01 186.32 42.25 185.44 42.25 184.44C42.25 183.59 42.06 182.83 41.68 182.17C41.3 181.51 40.67 181 39.77 180.62C39.19 180.36 38.45 180.18 37.58 180.06C36.7 179.94 35.6 179.88 34.31 179.88H29.94V189.6H32.96V189.62ZM48.56 184.58C48.56 186.79 47.91 188.66 46.62 190.21C45.33 191.75 43.33 192.89 40.62 193.64V193.73L50.67 206.79H43.28L34.16 194.49H29.95V206.79H23.79V175.05H33.97C35.66 175.05 37.23 175.14 38.68 175.32C40.13 175.5 41.38 175.78 42.41 176.14C44.38 176.84 45.9 177.91 46.97 179.3C48.04 180.7 48.57 182.46 48.57 184.58H48.56Z" fill="white"/>
</g>
<defs>
<clipPath id="clip0_2_76">
<rect width="415.89" height="207.36" fill="white"/>
</clipPath>
</defs>
</svg>
